HIERARCHY
ROOT Hips
{
	OFFSET 0.000000 0.000000 0.000000
	CHANNELS 6 Xposition Yposition Zposition Xrotation Yrotation Zrotation
	JOINT LeftUpLeg_virtual
	{
		OFFSET 0.000000 0.000000 0.000000
		CHANNELS 3 Xrotation Yrotation Zrotation
		JOINT LeftUpLeg
		{
			OFFSET 11.394100 -6.187798 -0.413800
			CHANNELS 3 Xrotation Yrotation Zrotation
			JOINT LeftLeg
			{
				OFFSET 0.430247 -32.302673 3.732800
				CHANNELS 3 Xrotation Yrotation Zrotation
				JOINT LeftFoot
				{
					OFFSET -0.430247 -48.264931 -6.423300
					CHANNELS 3 Xrotation Yrotation Zrotation
					JOINT LeftToeBase
					{
						OFFSET 4.230900 -16.068199 23.438400
						CHANNELS 3 Xrotation Yrotation Zrotation
						JOINT LeftToe_End
						{
							OFFSET 4.510700 0.695400 19.974600
							CHANNELS 3 Xrotation Yrotation Zrotation
							End Site
							{
								OFFSET 0 0 0
							}
						}
					}
				}
			}
		}
	}
	JOINT RightUpLeg_virtual
	{
		OFFSET 0.000000 0.000000 0.000000
		CHANNELS 3 Xrotation Yrotation Zrotation
		JOINT RightUpLeg
		{
			OFFSET -11.333700 -6.187798 -0.413800
			CHANNELS 3 Xrotation Yrotation Zrotation
			JOINT RightLeg
			{
				OFFSET -0.430392 -32.302628 3.733000
				CHANNELS 3 Xrotation Yrotation Zrotation
				JOINT RightFoot
				{
					OFFSET 0.430392 -48.264973 -6.423500
					CHANNELS 3 Xrotation Yrotation Zrotation
					JOINT RightToeBase
					{
						OFFSET -4.230900 -16.068199 23.438400
						CHANNELS 3 Xrotation Yrotation Zrotation
						JOINT RightToe_End
						{
							OFFSET -4.510700 0.695400 19.974600
							CHANNELS 3 Xrotation Yrotation Zrotation
							End Site
							{
								OFFSET 0 0 0
							}
						}
					}
				}
			}
		}
	}
	JOINT Spine_virtual
	{
		OFFSET 0.000000 0.000000 0.000000
		CHANNELS 3 Xrotation Yrotation Zrotation
		JOINT Spine
		{
			OFFSET -0.002400 12.777504 0.315300
			CHANNELS 3 Xrotation Yrotation Zrotation
			JOINT Spine1
			{
				OFFSET -0.002067 5.816869 0.032633
				CHANNELS 3 Xrotation Yrotation Zrotation
				JOINT Spine1_split
				{
					OFFSET -0.002067 5.816869 0.032633
					CHANNELS 3 Xrotation Yrotation Zrotation
					JOINT Spine2
					{
						OFFSET -0.002067 5.816869 0.032633
						CHANNELS 3 Xrotation Yrotation Zrotation
						JOINT Neck_virtual
						{
							OFFSET 0.000000 0.000000 0.000000
							CHANNELS 3 Xrotation Yrotation Zrotation
							JOINT Neck
							{
								OFFSET -0.003700 21.199493 -0.826900
								CHANNELS 3 Xrotation Yrotation Zrotation
								JOINT Head
								{
									OFFSET 0.000000 20.442200 4.834800
									CHANNELS 3 Xrotation Yrotation Zrotation
									JOINT HeadTop_End
									{
										OFFSET 0.000000 34.668396 4.968400
										CHANNELS 3 Xrotation Yrotation Zrotation
										End Site
										{
											OFFSET 0 0 0
										}
									}
								}
							}
						}
						JOINT LeftShoulder_virtual
						{
							OFFSET 0.000000 0.000000 0.000000
							CHANNELS 3 Xrotation Yrotation Zrotation
							JOINT LeftShoulder
							{
								OFFSET 3.288150 8.794197 -1.372250
								CHANNELS 3 Xrotation Yrotation Zrotation
								JOINT LeftShoulder_split
								{
									OFFSET 3.288150 8.794197 -1.372250
									CHANNELS 3 Xrotation Yrotation Zrotation
									JOINT LeftArm
									{
										OFFSET 11.953299 -2.279007 -0.146200
										CHANNELS 3 Xrotation Yrotation Zrotation
										JOINT LeftForeArm
										{
											OFFSET 18.448900 0.000000 0.000000
											CHANNELS 3 Xrotation Yrotation Zrotation
											JOINT LeftHand
											{
												OFFSET 29.527798 0.000000 0.000000
												CHANNELS 3 Xrotation Yrotation Zrotation
												End Site
												{
													OFFSET 0 0 0
												}
											}
										}
									}
								}
							}
						}
						JOINT RightShoulder_virtual
						{
							OFFSET 0.000000 0.000000 0.000000
							CHANNELS 3 Xrotation Yrotation Zrotation
							JOINT RightShoulder
							{
								OFFSET -3.249400 8.794197 -1.372250
								CHANNELS 3 Xrotation Yrotation Zrotation
								JOINT RightShoulder_split
								{
									OFFSET -3.249400 8.794197 -1.372250
									CHANNELS 3 Xrotation Yrotation Zrotation
									JOINT RightArm
									{
										OFFSET -11.953299 -2.279007 -0.146200
										CHANNELS 3 Xrotation Yrotation Zrotation
										JOINT RightForeArm
										{
											OFFSET -18.448900 0.000000 0.000000
											CHANNELS 3 Xrotation Yrotation Zrotation
											JOINT RightHand
											{
												OFFSET -29.527802 0.000000 0.000000
												CHANNELS 3 Xrotation Yrotation Zrotation
												End Site
												{
													OFFSET 0 0 0
												}
											}
										}
									}
								}
							}
						}
					}
				}
			}
		}
	}
}
MOTION
Frames: 8
Frame Time: 0.03333333
-0.321456 102.966400 0.573868 0.000000 0.000000 0.000000 -3.772613 -4.777071 -3.940036 -12.544084 13.001670 12.937985 12.810944 4.394256 3.651878 3.704138 0.358974 -7.643014 -0.573575 0.478490 -2.073263 0.000000 0.000000 0.000000 -3.268401 -2.839038 -4.109931 -1.406471 -8.822180 1.857649 7.622659 -8.327274 -5.495273 1.830688 -0.556229 1.166816 -8.189218 -0.380795 -1.139737 0.000000 0.000000 0.000000 -3.807699 -4.373801 -4.556054 2.938408 0.420892 3.547254 1.713013 -0.036269 1.815250 1.121000 -0.527055 0.032141 0.000000 0.000000 0.000000 1.285678 0.431322 1.672531 6.153864 1.174238 -0.107810 -5.382185 0.824076 -1.004843 0.000000 0.000000 0.000000 1.071551 0.590692 1.431092 1.722642 -15.364531 -12.608261 -2.725950 -0.335309 -1.517060 8.642186 -20.274039 -68.080710 -1.830077 -2.608076 0.032558 0.000000 0.000000 0.000000 1.462012 0.524785 1.645095 1.891418 12.116524 15.575922 0.406772 2.652869 -0.978584 12.372008 28.240367 57.258903 0.530179 11.286293 0.826711 0.000000 0.000000 0.000000 
-0.245136 102.963821 0.605156 0.000000 0.000000 0.000000 -3.765942 -4.928677 -3.924202 -12.533388 12.945290 12.933534 12.904211 4.428050 3.616823 3.601188 0.369464 -7.684993 -0.609962 0.479526 -2.085913 0.000000 0.000000 0.000000 -3.249713 -2.930400 -4.087580 -1.363081 -8.904010 1.857810 7.551928 -8.201506 -5.534132 1.912656 -0.619864 1.161986 -8.146461 -0.451866 -1.053486 0.000000 0.000000 0.000000 -3.800894 -4.532833 -4.586058 2.959730 0.403813 3.561950 1.702944 -0.051003 1.821464 1.092938 -0.495587 0.019424 0.000000 0.000000 0.000000 1.288777 0.433738 1.672056 6.172860 1.205434 -0.076713 -5.423437 0.906266 -1.021587 0.000000 0.000000 0.000000 1.098673 0.575089 1.446307 1.712830 -15.423943 -12.611873 -2.721242 -0.431046 -1.558799 8.564818 -20.281509 -68.141211 -1.837155 -2.672902 0.036020 0.000000 0.000000 0.000000 1.457254 0.516012 1.664912 1.872601 12.149680 15.634798 0.331180 2.646243 -0.964417 12.450741 28.252340 57.163277 0.549890 11.066658 0.861319 0.000000 0.000000 0.000000 
-0.175942 102.958572 0.623699 0.000000 0.000000 0.000000 -3.798279 -5.220685 -3.936161 -12.542763 12.900165 13.015260 13.129481 4.501091 3.568609 3.425494 0.380999 -7.768274 -0.646190 0.481401 -2.103033 0.000000 0.000000 0.000000 -3.288100 -3.078359 -4.092523 -1.276227 -9.045760 1.897707 7.513306 -7.933770 -5.585512 1.804071 -0.764215 1.121732 -8.045115 -0.509071 -0.986717 0.000000 0.000000 0.000000 -3.823924 -4.805487 -4.628342 2.994953 0.392533 3.603168 1.695046 -0.071161 1.823114 1.056443 -0.470103 0.008382 0.000000 0.000000 0.000000 1.289447 0.428164 1.666837 6.209294 1.258554 -0.047614 -5.488336 1.066153 -1.098946 0.000000 0.000000 0.000000 1.124776 0.555985 1.457854 1.696875 -15.495426 -12.623711 -2.643773 -0.496826 -1.610888 8.511916 -20.178315 -68.215497 -1.823450 -2.731569 0.040200 0.000000 0.000000 0.000000 1.443919 0.503984 1.686219 1.856796 12.250434 15.667849 0.229454 2.650902 -0.958722 12.587407 28.227393 57.026954 0.525909 10.873659 0.927328 0.000000 0.000000 0.000000 
-0.124458 102.950844 0.625008 0.000000 0.000000 0.000000 -3.868065 -5.590953 -3.964269 -12.566309 12.868998 13.161271 13.418765 4.622028 3.508438 3.213996 0.392029 -7.878048 -0.664477 0.484058 -2.116822 0.000000 0.000000 0.000000 -3.371583 -3.285656 -4.113191 -1.194588 -9.238493 1.963219 7.548277 -7.525578 -5.631584 1.608683 -0.959636 1.103078 -7.957550 -0.549106 -0.952646 0.000000 0.000000 0.000000 -3.872472 -5.162642 -4.676006 3.039415 0.387843 3.665348 1.691752 -0.090004 1.821318 1.036332 -0.465652 0.023566 0.000000 0.000000 0.000000 1.284217 0.419007 1.658080 6.251945 1.323805 -0.020317 -5.569323 1.271406 -1.213238 0.000000 0.000000 0.000000 1.149280 0.536419 1.465896 1.672961 -15.573535 -12.641891 -2.540226 -0.483992 -1.666679 8.487878 -19.949336 -68.274953 -1.800056 -2.757015 0.044874 0.000000 0.000000 0.000000 1.429462 0.489981 1.705199 1.844452 12.405697 15.660592 0.131500 2.654538 -0.955369 12.773637 28.218855 56.866372 0.478596 10.737401 1.001738 0.000000 0.000000 0.000000 
-0.086772 102.932793 0.597687 0.000000 0.000000 0.000000 -3.962556 -5.994255 -4.001113 -12.585421 12.851485 13.343831 13.712365 4.797939 3.439215 3.007986 0.400590 -7.999386 -0.663637 0.484940 -2.118504 0.000000 0.000000 0.000000 -3.479957 -3.546298 -4.138040 -1.141507 -9.453237 2.043325 7.643853 -6.971335 -5.676760 1.389271 -1.184083 1.143618 -8.012719 -0.574621 -0.967141 0.000000 0.000000 0.000000 -3.944307 -5.584412 -4.723319 3.089656 0.391039 3.739792 1.695126 -0.101316 1.818390 1.036967 -0.483329 0.047492 0.000000 0.000000 0.000000 1.274420 0.412670 1.646144 6.288069 1.393247 0.007911 -5.654500 1.481820 -1.329133 0.000000 0.000000 0.000000 1.175255 0.520880 1.471054 1.644404 -15.653699 -12.651730 -2.422239 -0.389854 -1.726395 8.463503 -19.631280 -68.304228 -1.779052 -2.751167 0.046561 0.000000 0.000000 0.000000 1.421868 0.479398 1.719635 1.835742 12.598467 15.596616 0.025391 2.643188 -0.945340 13.011771 28.291342 56.681547 0.434626 10.680187 1.061002 0.000000 0.000000 0.000000 
-0.057089 102.905693 0.557060 0.000000 0.000000 0.000000 -4.065668 -6.391747 -4.038235 -12.578528 12.839125 13.530793 13.971800 5.022997 3.366656 2.844570 0.402122 -8.121956 -0.666521 0.483625 -2.101161 0.000000 0.000000 0.000000 -3.588496 -3.839370 -4.158401 -1.125366 -9.661008 2.131270 7.792517 -6.306975 -5.728670 1.152443 -1.442849 1.207360 -8.189533 -0.593373 -1.016934 0.000000 0.000000 0.000000 -4.037827 -6.040267 -4.767441 3.141569 0.401193 3.817312 1.706058 -0.099143 1.818123 1.040473 -0.535443 0.080888 0.000000 0.000000 0.000000 1.263613 0.414911 1.633914 6.317692 1.458791 0.032227 -5.726559 1.644788 -1.420543 0.000000 0.000000 0.000000 1.206678 0.511979 1.474671 1.615576 -15.727158 -12.642249 -2.318769 -0.238432 -1.817180 8.426539 -19.269429 -68.300082 -1.766346 -2.715524 0.044979 0.000000 0.000000 0.000000 1.422695 0.476101 1.731041 1.828897 12.811009 15.476538 -0.068593 2.624918 -0.925239 13.277666 28.467057 56.502354 0.414398 10.709257 1.084122 0.000000 0.000000 0.000000 
-0.032836 102.885567 0.518887 0.000000 0.000000 0.000000 -4.180075 -6.797183 -4.068312 -12.531357 12.823956 13.709128 14.188012 5.287685 3.304639 2.748672 0.391314 -8.244279 -0.682895 0.480734 -2.066665 0.000000 0.000000 0.000000 -3.694498 -4.189016 -4.168930 -1.172643 -9.842192 2.223062 7.985641 -5.589425 -5.784424 0.919633 -1.756759 1.225559 -8.362814 -0.611107 -1.074483 0.000000 0.000000 0.000000 -4.157944 -6.512294 -4.809384 3.192187 0.413913 3.886311 1.721742 -0.085316 1.823350 1.037321 -0.619873 0.098328 0.000000 0.000000 0.000000 1.253768 0.426701 1.623247 6.349612 1.514942 0.054035 -5.780605 1.724728 -1.479961 0.000000 0.000000 0.000000 1.245963 0.508848 1.478209 1.595132 -15.789951 -12.597778 -2.251786 -0.041221 -1.915879 8.372080 -18.894829 -68.280629 -1.758608 -2.647432 0.040320 0.000000 0.000000 0.000000 1.437226 0.482069 1.745445 1.829746 13.028706 15.319704 -0.166096 2.601440 -0.892853 13.511541 28.692388 56.346530 0.416879 10.861503 1.064917 0.000000 0.000000 0.000000 
-0.008666 102.877380 0.488804 0.000000 0.000000 0.000000 -4.292413 -7.242766 -4.089759 -12.442107 12.793631 13.872331 14.366680 5.591276 3.263327 2.703747 0.377348 -8.351062 -0.696995 0.473268 -2.023158 0.000000 0.000000 0.000000 -3.805133 -4.581731 -4.171278 -1.296453 -9.990437 2.310388 8.229756 -4.850009 -5.840608 0.731671 -2.135542 1.176086 -8.436041 -0.634245 -1.104503 0.000000 0.000000 0.000000 -4.296577 -6.988218 -4.848519 3.235941 0.425673 3.938101 1.733681 -0.061993 1.836992 1.049180 -0.696220 0.089191 0.000000 0.000000 0.000000 1.244317 0.444499 1.620174 6.392156 1.556787 0.067031 -5.813733 1.704199 -1.520999 0.000000 0.000000 0.000000 1.289746 0.509985 1.483244 1.589027 -15.836615 -12.510193 -2.202802 0.143691 -1.979677 8.302664 -18.538628 -68.278553 -1.742333 -2.561822 0.031453 0.000000 0.000000 0.000000 1.468394 0.498662 1.767305 1.836533 13.241779 15.147809 -0.258546 2.561157 -0.828485 13.563855 28.863478 56.262382 0.429983 11.192878 1.008925 0.000000 0.000000 0.000000 
